<svg width="24" height="24" viewBox="0 0 24 24" fill="none" xmlns="http://www.w3.org/2000/svg">
<path fill-rule="evenodd" clip-rule="evenodd" d="M5 19.1666C5 19.6269 5.3731 20 5.83333 20H19.1667C19.6269 20 20 19.6269 20 19.1666C20 18.7064 19.6269 18.3333 19.1667 18.3333H5.83333C5.3731 18.3333 5 18.7064 5 19.1666ZM10 15.8333C10 16.2936 10.3731 16.6667 10.8333 16.6667H19.1667C19.6269 16.6667 20 16.2936 20 15.8333C20 15.3731 19.6269 15 19.1667 15H10.8333C10.3731 15 10 15.3731 10 15.8333ZM5 12.5C5 12.9603 5.3731 13.3334 5.83333 13.3334H19.1667C19.6269 13.3334 20 12.9603 20 12.5C20 12.0398 19.6269 11.6667 19.1667 11.6667H5.83333C5.3731 11.6667 5 12.0398 5 12.5ZM10 9.16665C10 9.62688 10.3731 9.99998 10.8333 9.99998H19.1667C19.6269 9.99998 20 9.62688 20 9.16665C20 8.70641 19.6269 8.33331 19.1667 8.33331H10.8333C10.3731 8.33331 10 8.70641 10 9.16665ZM5.83333 5C5.3731 5 5 5.3731 5 5.83333C5 6.29357 5.3731 6.66667 5.83333 6.66667H19.1667C19.6269 6.66667 20 6.29357 20 5.83333C20 5.3731 19.6269 5 19.1667 5H5.83333Z" fill="#353535"/>
</svg>
