<svg width="33" height="33" viewBox="0 0 33 33" fill="none" xmlns="http://www.w3.org/2000/svg">
<g opacity="0.9">
<path opacity="0.9" d="M22.3024 17.5626C21.4617 17.5641 20.642 17.3005 19.9598 16.8093C19.4548 16.4504 19.0435 15.9755 18.7602 15.4245C18.477 14.8735 18.3303 14.2626 18.3323 13.6431V4.50536C18.3394 3.54813 18.6939 2.62605 19.3299 1.91062C19.9658 1.19518 20.84 0.735084 21.7898 0.615892L28.3071 0.0289593C28.8644 -0.0386322 29.4297 0.0124153 29.966 0.17875C30.5022 0.345084 30.9972 0.622941 31.4184 0.994089C31.8355 1.35966 32.1698 1.80995 32.3991 2.31492C32.6285 2.81989 32.7475 3.36795 32.7483 3.92256V11.3967C32.7473 12.2218 32.4859 13.0255 32.0015 13.6934C31.5171 14.3613 30.8343 14.8594 30.0503 15.1167L23.5816 17.3611C23.1687 17.496 22.7368 17.5641 22.3024 17.5626ZM28.7793 2.22272C28.7019 2.22271 28.6245 2.22789 28.5478 2.23823L22.0306 2.82412C21.6224 2.88085 21.2483 3.08236 20.9763 3.39192C20.7043 3.70147 20.5526 4.09846 20.5488 4.51052V13.6483C20.5486 13.9163 20.6128 14.1805 20.736 14.4186C20.8592 14.6567 21.0377 14.8617 21.2566 15.0164C21.4867 15.1829 21.7535 15.2915 22.0344 15.3332C22.3153 15.375 22.6021 15.3485 22.8707 15.2562L29.3456 13.0107C29.6881 12.9008 29.9872 12.6856 30.2004 12.3958C30.4135 12.106 30.5299 11.7564 30.5329 11.3967V3.92256C30.5334 3.68281 30.4822 3.44577 30.3827 3.22766C30.2832 3.00954 30.1377 2.81549 29.9563 2.65879C29.6299 2.3753 29.2116 2.22029 28.7793 2.22272Z" fill="url(#paint0_linear_204:509)"/>
</g>
<g opacity="0.9">
<path opacity="0.9" d="M11.996 24.8147C11.553 24.8149 11.113 24.7416 10.694 24.5977L2.66704 21.6113C1.89188 21.3488 1.21812 20.8506 0.739941 20.1864C0.261762 19.5222 0.00306532 18.7252 1.11419e-05 17.9068V7.24489C-0.00143511 6.64174 0.137934 6.04659 0.407023 5.50679C0.676113 4.967 1.06749 4.49748 1.55001 4.13559C2.55544 3.37196 3.21988 3.13016 4.44334 3.47219L13.0603 5.84886C13.8911 6.07542 14.625 6.56721 15.1505 7.24937C15.676 7.93153 15.9642 8.7667 15.9712 9.62775V20.8911C15.9735 21.514 15.8251 22.1282 15.5389 22.6815C15.2526 23.2347 14.8369 23.7106 14.3272 24.0686C13.6469 24.5542 12.8318 24.815 11.996 24.8147ZM3.37798 19.5116L11.3935 22.4948C11.6653 22.592 11.9565 22.622 12.2424 22.5824C12.5283 22.5429 12.8004 22.4348 13.0355 22.2675C13.2566 22.1129 13.4372 21.9072 13.5618 21.668C13.6865 21.4287 13.7516 21.1629 13.7516 20.8932V9.62982C13.7468 9.25589 13.6204 8.8937 13.3914 8.59802C13.1625 8.30234 12.8435 8.08924 12.4827 7.99096L3.86571 5.61429C3.29634 5.45619 3.33871 5.56262 2.89128 5.90362C2.6821 6.05965 2.5122 6.26231 2.39506 6.4955C2.27793 6.7287 2.21679 6.986 2.21651 7.24695V17.9068C2.21963 18.2618 2.33311 18.607 2.54123 18.8945C2.74934 19.182 3.04178 19.3977 3.37798 19.5116Z" fill="url(#paint1_linear_204:509)"/>
</g>
<g opacity="0.85">
<path opacity="0.85" d="M10.9814 32.3124C10.1023 32.3142 9.24756 32.0233 8.55199 31.4858C8.07607 31.1232 7.69047 30.6554 7.42535 30.1191C7.16022 29.5827 7.02275 28.9923 7.02369 28.394V14.7096C7.03117 13.8063 7.34794 12.9328 7.92123 12.2346C8.49451 11.5365 9.2897 11.0559 10.1743 10.8728L21.7208 8.4631C22.3034 8.33964 22.9062 8.34823 23.485 8.48824C24.0638 8.62825 24.6039 8.89612 25.0657 9.27219C25.5176 9.63682 25.8821 10.098 26.1324 10.6219C26.3828 11.1459 26.5126 11.7192 26.5124 12.2999V25.6712C26.5079 26.5371 26.2181 27.3774 25.6877 28.0619C25.1574 28.7463 24.4161 29.2368 23.5787 29.4573L12.0436 32.174C11.6969 32.2655 11.3399 32.312 10.9814 32.3124ZM22.5464 10.5928C22.4214 10.5931 22.2967 10.6062 22.1744 10.6321L10.6269 13.0428C10.2401 13.1203 9.89143 13.3279 9.6391 13.6312C9.38677 13.9345 9.24598 14.3151 9.24019 14.7096V28.3909C9.24054 28.6498 9.30069 28.905 9.41594 29.1368C9.5312 29.3685 9.69844 29.5705 9.90462 29.727C10.1216 29.8947 10.3744 30.0099 10.6433 30.0637C10.9122 30.1175 11.1898 30.1084 11.4546 30.037L23.0021 27.3173C23.3694 27.2241 23.6955 27.0122 23.9299 26.7145C24.1642 26.4168 24.2936 26.05 24.2979 25.6712V12.2999C24.2974 12.0488 24.2406 11.801 24.1317 11.5748C24.0228 11.3486 23.8646 11.1497 23.6686 10.9927C23.3519 10.734 22.9554 10.5927 22.5464 10.5928Z" fill="url(#paint2_linear_204:509)"/>
</g>
<defs>
<linearGradient id="paint0_linear_204:509" x1="30.1299" y1="3.84712" x2="19.3863" y2="13.4602" gradientUnits="userSpaceOnUse">
<stop offset="0.02" stop-color="#FBB040"/>
<stop offset="0.26" stop-color="#F89B5A"/>
<stop offset="0.75" stop-color="#F1738B"/>
<stop offset="1" stop-color="#EF649E"/>
</linearGradient>
<linearGradient id="paint1_linear_204:509" x1="12.2874" y1="21.0637" x2="3.76444" y2="6.62076" gradientUnits="userSpaceOnUse">
<stop stop-color="#5E2AF5"/>
<stop offset="1" stop-color="#55C3F5"/>
</linearGradient>
<linearGradient id="paint2_linear_204:509" x1="9.20919" y1="24.333" x2="26.3015" y2="14.969" gradientUnits="userSpaceOnUse">
<stop stop-color="#EC4CAC"/>
<stop offset="1" stop-color="#9218EF"/>
</linearGradient>
</defs>
</svg>
