<svg width="24" height="24" viewBox="0 0 24 24" fill="none" xmlns="http://www.w3.org/2000/svg">
<path fill-rule="evenodd" clip-rule="evenodd" d="M9.16658 15C8.70635 15 8.33325 15.3731 8.33325 15.8333C8.33325 16.2936 8.70635 16.6667 9.16658 16.6667H15.8333C16.2935 16.6667 16.6666 16.2936 16.6666 15.8333C16.6666 15.3731 16.2935 15 15.8333 15H9.16658ZM5 19.1666C5 19.6269 5.3731 20 5.83333 20H19.1667C19.6269 20 20 19.6269 20 19.1666C20 18.7064 19.6269 18.3333 19.1667 18.3333H5.83333C5.3731 18.3333 5 18.7064 5 19.1666ZM5 12.5C5 12.9603 5.3731 13.3334 5.83333 13.3334H19.1667C19.6269 13.3334 20 12.9603 20 12.5C20 12.0398 19.6269 11.6667 19.1667 11.6667H5.83333C5.3731 11.6667 5 12.0398 5 12.5ZM9.16659 8.33331C8.70635 8.33331 8.33325 8.70641 8.33325 9.16665C8.33325 9.62688 8.70635 9.99998 9.16659 9.99998H15.8333C16.2935 9.99998 16.6666 9.62688 16.6666 9.16665C16.6666 8.70641 16.2935 8.33331 15.8333 8.33331H9.16659ZM5.83333 5C5.3731 5 5 5.3731 5 5.83333C5 6.29357 5.3731 6.66667 5.83333 6.66667H19.1667C19.6269 6.66667 20 6.29357 20 5.83333C20 5.3731 19.6269 5 19.1667 5H5.83333Z" fill="#353535"/>
</svg>
