<svg width="24" height="24" viewBox="0 0 24 24" fill="none" xmlns="http://www.w3.org/2000/svg">
<path d="M20.71 5.62957L18.37 3.28957C17.98 2.89957 17.35 2.89957 16.96 3.28957L13.84 6.40957L12.6168 5.19906C12.2259 4.81216 11.5958 4.8138 11.2068 5.20273C10.8165 5.59311 10.8165 6.22603 11.2068 6.61641L11.92 7.32957L3.22386 16.0257C3.07818 16.1714 2.98106 16.3585 2.94576 16.5615L2.24348 20.5995C2.1249 21.2814 2.71816 21.8746 3.40003 21.756L7.43809 21.0538C7.64107 21.0185 7.82818 20.9214 7.97386 20.7757L16.67 12.0796L17.385 12.7946C17.7744 13.1839 18.4056 13.1839 18.795 12.7946C19.1844 12.4052 19.1844 11.7739 18.795 11.3846L17.58 10.1696L20.7 7.04957C21.1 6.64957 21.1 6.01957 20.71 5.62957ZM8.12701 18.8029C7.73566 19.1885 7.10655 19.1861 6.71808 18.7976L5.20186 17.2814C4.81339 16.893 4.81105 16.2639 5.19662 15.8725L8.5 12.5196L11.8328 9.20313C12.2236 8.81425 12.8555 8.81503 13.2453 9.20488L14.7946 10.7542C15.1845 11.144 15.1853 11.7759 14.7964 12.1667L11.4799 15.4995L8.12701 18.8029Z" fill="#353535"/>
</svg>
